<svg xmlns="http://www.w3.org/2000/svg" viewBox="0 0 32 32" width="32" height="32">
  <defs>
    <linearGradient id="vitaGradient" x1="0%" y1="0%" x2="100%" y2="100%">
      <stop offset="0%" style="stop-color:#4ade80;stop-opacity:1" />
      <stop offset="50%" style="stop-color:#22c55e;stop-opacity:1" />
      <stop offset="100%" style="stop-color:#16a34a;stop-opacity:1" />
    </linearGradient>
    <linearGradient id="heartGradient" x1="0%" y1="0%" x2="100%" y2="100%">
      <stop offset="0%" style="stop-color:#ef4444;stop-opacity:1" />
      <stop offset="100%" style="stop-color:#dc2626;stop-opacity:1" />
    </linearGradient>
  </defs>
  
  <!-- Background circle -->
  <circle cx="16" cy="16" r="15" fill="url(#vitaGradient)" stroke="#ffffff" stroke-width="1"/>
  
  <!-- Dumbbell design -->
  <g transform="translate(16,16)">
    <!-- Left weight -->
    <rect x="-12" y="-3" width="4" height="6" rx="1" fill="#ffffff"/>
    <!-- Right weight -->
    <rect x="8" y="-3" width="4" height="6" rx="1" fill="#ffffff"/>
    <!-- Bar -->
    <rect x="-8" y="-1" width="16" height="2" rx="1" fill="#ffffff"/>
    <!-- Grip marks -->
    <line x1="-4" y1="-1" x2="-4" y2="1" stroke="url(#vitaGradient)" stroke-width="0.5"/>
    <line x1="-2" y1="-1" x2="-2" y2="1" stroke="url(#vitaGradient)" stroke-width="0.5"/>
    <line x1="2" y1="-1" x2="2" y2="1" stroke="url(#vitaGradient)" stroke-width="0.5"/>
    <line x1="4" y1="-1" x2="4" y2="1" stroke="url(#vitaGradient)" stroke-width="0.5"/>
  </g>
  
  <!-- Small heart accent -->
  <g transform="translate(22,10) scale(0.4)">
    <path d="M12 21.35l-1.45-1.32C5.4 15.36 2 12.28 2 8.5 2 5.42 4.42 3 7.5 3c1.74 0 3.41.81 4.5 2.09C13.09 3.81 14.76 3 16.5 3 19.58 3 22 5.42 22 8.5c0 3.78-3.4 6.86-8.55 11.54L12 21.35z" fill="url(#heartGradient)"/>
  </g>
</svg>