<svg xmlns="http://www.w3.org/2000/svg" viewBox="0 0 200 200">
  <defs>
    <linearGradient id="communityGradient" x1="0%" y1="0%" x2="100%" y2="100%">
      <stop offset="0%" style="stop-color:#667eea;stop-opacity:1" />
      <stop offset="100%" style="stop-color:#764ba2;stop-opacity:1" />
    </linearGradient>
  </defs>
  
  <!-- Background circle -->
  <circle cx="100" cy="100" r="90" fill="url(#communityGradient)" opacity="0.1"/>
  
  <!-- Central person -->
  <g transform="translate(100,90)">
    <circle cx="0" cy="-15" r="12" fill="url(#communityGradient)" opacity="0.8"/>
    <path d="M-15,10 Q-15,0 -8,0 L8,0 Q15,0 15,10 L15,25 Q15,30 10,30 L-10,30 Q-15,30 -15,25 Z" fill="url(#communityGradient)" opacity="0.6"/>
  </g>
  
  <!-- Left person -->
  <g transform="translate(60,100)">
    <circle cx="0" cy="-10" r="8" fill="url(#communityGradient)" opacity="0.6"/>
    <path d="M-10,5 Q-10,-2 -5,-2 L5,-2 Q10,-2 10,5 L10,15 Q10,18 7,18 L-7,18 Q-10,18 -10,15 Z" fill="url(#communityGradient)" opacity="0.4"/>
  </g>
  
  <!-- Right person -->
  <g transform="translate(140,100)">
    <circle cx="0" cy="-10" r="8" fill="url(#communityGradient)" opacity="0.6"/>
    <path d="M-10,5 Q-10,-2 -5,-2 L5,-2 Q10,-2 10,5 L10,15 Q10,18 7,18 L-7,18 Q-10,18 -10,15 Z" fill="url(#communityGradient)" opacity="0.4"/>
  </g>
  
  <!-- Top person -->
  <g transform="translate(100,50)">
    <circle cx="0" cy="-5" r="6" fill="url(#communityGradient)" opacity="0.5"/>
    <path d="M-8,3 Q-8,-1 -4,-1 L4,-1 Q8,-1 8,3 L8,10 Q8,12 6,12 L-6,12 Q-8,12 -8,10 Z" fill="url(#communityGradient)" opacity="0.3"/>
  </g>
  
  <!-- Bottom left person -->
  <g transform="translate(70,130)">
    <circle cx="0" cy="-5" r="6" fill="url(#communityGradient)" opacity="0.5"/>
    <path d="M-8,3 Q-8,-1 -4,-1 L4,-1 Q8,-1 8,3 L8,10 Q8,12 6,12 L-6,12 Q-8,12 -8,10 Z" fill="url(#communityGradient)" opacity="0.3"/>
  </g>
  
  <!-- Bottom right person -->
  <g transform="translate(130,130)">
    <circle cx="0" cy="-5" r="6" fill="url(#communityGradient)" opacity="0.5"/>
    <path d="M-8,3 Q-8,-1 -4,-1 L4,-1 Q8,-1 8,3 L8,10 Q8,12 6,12 L-6,12 Q-8,12 -8,10 Z" fill="url(#communityGradient)" opacity="0.3"/>
  </g>
  
  <!-- Connection lines -->
  <g stroke="url(#communityGradient)" stroke-width="2" opacity="0.3" fill="none">
    <line x1="100" y1="90" x2="60" y2="100"/>
    <line x1="100" y1="90" x2="140" y2="100"/>
    <line x1="100" y1="90" x2="100" y2="50"/>
    <line x1="100" y1="90" x2="70" y2="130"/>
    <line x1="100" y1="90" x2="130" y2="130"/>
  </g>
  
  <!-- Chat bubbles -->
  <g transform="translate(140,60)">
    <ellipse cx="0" cy="0" rx="12" ry="8" fill="#fff" stroke="url(#communityGradient)" stroke-width="2"/>
    <path d="M-8,6 L-5,12 L-2,6" fill="#fff" stroke="url(#communityGradient)" stroke-width="2"/>
    <circle cx="-4" cy="-2" r="1.5" fill="url(#communityGradient)"/>
    <circle cx="0" cy="-2" r="1.5" fill="url(#communityGradient)"/>
    <circle cx="4" cy="-2" r="1.5" fill="url(#communityGradient)"/>
  </g>
  
  <!-- Heart/Like -->
  <g transform="translate(50,70)">
    <path d="M0,5 Q-5,0 -10,5 Q-10,10 0,15 Q10,10 10,5 Q5,0 0,5 Z" fill="#e53e3e" opacity="0.7"/>
  </g>
  
  <!-- Thumbs up -->
  <g transform="translate(150,140)">
    <path d="M0,0 L3,0 L3,-8 Q3,-12 7,-12 Q11,-12 11,-8 L11,0 L15,0 Q18,0 18,3 L18,8 Q18,11 15,11 L3,11 Q0,11 0,8 Z" fill="url(#communityGradient)" opacity="0.6"/>
  </g>
</svg>