<svg xmlns="http://www.w3.org/2000/svg" viewBox="0 0 1200 800">
  <defs>
    <linearGradient id="bgGradient" x1="0%" y1="0%" x2="100%" y2="100%">
      <stop offset="0%" style="stop-color:#667eea;stop-opacity:1" />
      <stop offset="100%" style="stop-color:#764ba2;stop-opacity:1" />
    </linearGradient>
    <linearGradient id="equipmentGradient" x1="0%" y1="0%" x2="100%" y2="100%">
      <stop offset="0%" style="stop-color:#ffffff;stop-opacity:0.9" />
      <stop offset="100%" style="stop-color:#f8fafc;stop-opacity:0.8" />
    </linearGradient>
  </defs>
  
  <!-- Background -->
  <rect width="1200" height="800" fill="url(#bgGradient)"/>
  
  <!-- Floating circles for depth -->
  <circle cx="100" cy="150" r="80" fill="rgba(255,255,255,0.1)" opacity="0.6"/>
  <circle cx="1100" cy="200" r="60" fill="rgba(255,255,255,0.08)" opacity="0.5"/>
  <circle cx="200" cy="600" r="100" fill="rgba(255,255,255,0.05)" opacity="0.4"/>
  <circle cx="1000" cy="650" r="70" fill="rgba(255,255,255,0.07)" opacity="0.3"/>
  
  <!-- Dumbbells -->
  <g transform="translate(150,100) rotate(-15)">
    <!-- Left dumbbell -->
    <rect x="0" y="15" width="80" height="10" rx="5" fill="url(#equipmentGradient)"/>
    <circle cx="-10" cy="20" r="15" fill="#2d3748"/>
    <circle cx="90" cy="20" r="15" fill="#2d3748"/>
    <rect x="-15" y="10" width="10" height="20" fill="#4a5568"/>
    <rect x="85" y="10" width="10" height="20" fill="#4a5568"/>
  </g>
  
  <g transform="translate(950,120) rotate(20)">
    <!-- Right dumbbell -->
    <rect x="0" y="15" width="80" height="10" rx="5" fill="url(#equipmentGradient)"/>
    <circle cx="-10" cy="20" r="15" fill="#2d3748"/>
    <circle cx="90" cy="20" r="15" fill="#2d3748"/>
    <rect x="-15" y="10" width="10" height="20" fill="#4a5568"/>
    <rect x="85" y="10" width="10" height="20" fill="#4a5568"/>
  </g>
  
  <!-- Gym Equipment Silhouettes -->
  <!-- Bench Press -->
  <g transform="translate(80,450)">
    <rect x="0" y="20" width="120" height="15" rx="7" fill="url(#equipmentGradient)"/>
    <rect x="10" y="0" width="15" height="40" fill="#4a5568"/>
    <rect x="95" y="0" width="15" height="40" fill="#4a5568"/>
    <rect x="20" y="35" width="80" height="8" fill="#2d3748"/>
  </g>
  
  <!-- Cable Machine -->
  <g transform="translate(950,400)">
    <rect x="0" y="0" width="80" height="120" rx="10" fill="url(#equipmentGradient)"/>
    <rect x="10" y="10" width="60" height="80" fill="#4a5568"/>
    <circle cx="40" cy="50" r="20" fill="#2d3748"/>
    <rect x="85" y="40" width="30" height="8" fill="#718096"/>
    <rect x="110" y="35" width="10" height="18" fill="#2d3748"/>
  </g>
  
  <!-- Podium/Platform -->
  <g transform="translate(400,500)">
    <ellipse cx="200" cy="80" rx="180" ry="20" fill="rgba(255,255,255,0.2)"/>
    <rect x="50" y="60" width="100" height="40" rx="20" fill="rgba(102,126,234,0.8)"/>
    <rect x="170" y="50" width="100" height="50" rx="25" fill="rgba(102,126,234,0.9)"/>
    <rect x="290" y="70" width="100" height="30" rx="15" fill="rgba(102,126,234,0.7)"/>
  </g>
  
  <!-- Abstract fitness icons -->
  <g transform="translate(300,150)" opacity="0.3">
    <circle cx="0" cy="0" r="3" fill="white"/>
    <circle cx="20" cy="10" r="2" fill="white"/>
    <circle cx="-15" cy="15" r="2.5" fill="white"/>
    <circle cx="10" cy="-10" r="2" fill="white"/>
  </g>
  
  <g transform="translate(800,250)" opacity="0.3">
    <circle cx="0" cy="0" r="2.5" fill="white"/>
    <circle cx="15" cy="8" r="2" fill="white"/>
    <circle cx="-10" cy="12" r="2" fill="white"/>
    <circle cx="8" cy="-8" r="1.5" fill="white"/>
  </g>
  
  <!-- Motivational elements -->
  <g transform="translate(600,200)" opacity="0.4">
    <path d="M0,0 L10,5 L0,10 Z" fill="white"/>
    <path d="M15,2 L25,7 L15,12 Z" fill="white"/>
  </g>
</svg>