<svg xmlns="http://www.w3.org/2000/svg" viewBox="0 0 200 200">
  <defs>
    <linearGradient id="nutritionGradient" x1="0%" y1="0%" x2="100%" y2="100%">
      <stop offset="0%" style="stop-color:#667eea;stop-opacity:1" />
      <stop offset="100%" style="stop-color:#764ba2;stop-opacity:1" />
    </linearGradient>
  </defs>
  
  <!-- Background circle -->
  <circle cx="100" cy="100" r="90" fill="url(#nutritionGradient)" opacity="0.1"/>
  
  <!-- Apple -->
  <g transform="translate(70,60)">
    <path d="M30,20 Q35,10 40,15 Q45,20 40,30 Q35,50 30,55 Q25,60 20,55 Q15,50 10,30 Q5,20 10,15 Q15,10 20,15 Q25,10 30,20 Z" fill="#e53e3e"/>
    <path d="M25,15 Q30,5 35,10" stroke="#38a169" stroke-width="3" fill="none"/>
    <ellipse cx="22" cy="35" rx="3" ry="2" fill="#fff" opacity="0.3"/>
  </g>
  
  <!-- Carrot -->
  <g transform="translate(120,80)">
    <path d="M0,40 L5,35 L10,40 L8,50 L2,50 Z" fill="#fd7f28"/>
    <path d="M3,35 Q5,30 7,35" stroke="#38a169" stroke-width="2" fill="none"/>
    <path d="M1,35 Q3,28 5,35" stroke="#38a169" stroke-width="2" fill="none"/>
    <path d="M5,35 Q7,28 9,35" stroke="#38a169" stroke-width="2" fill="none"/>
  </g>
  
  <!-- Broccoli -->
  <g transform="translate(50,120)">
    <circle cx="5" cy="5" r="4" fill="#38a169"/>
    <circle cx="12" cy="3" r="3" fill="#38a169"/>
    <circle cx="18" cy="7" r="4" fill="#38a169"/>
    <circle cx="8" cy="12" r="3" fill="#38a169"/>
    <circle cx="15" cy="11" r="3" fill="#38a169"/>
    <rect x="10" y="15" width="3" height="8" fill="#68d391"/>
  </g>
  
  <!-- Plate -->
  <g transform="translate(100,140)">
    <ellipse cx="0" cy="0" rx="25" ry="8" fill="#e2e8f0"/>
    <ellipse cx="0" cy="-2" rx="25" ry="8" fill="#f7fafc"/>
    <ellipse cx="0" cy="-2" rx="20" ry="6" fill="#edf2f7"/>
  </g>
  
  <!-- Utensils -->
  <g transform="translate(140,120)">
    <!-- Fork -->
    <rect x="0" y="0" width="2" height="20" fill="#a0aec0"/>
    <rect x="-1" y="0" width="1" height="8" fill="#a0aec0"/>
    <rect x="3" y="0" width="1" height="8" fill="#a0aec0"/>
    
    <!-- Knife -->
    <rect x="8" y="0" width="2" height="20" fill="#a0aec0"/>
    <path d="M8,0 L12,4 L10,6 L8,4 Z" fill="#cbd5e0"/>
  </g>
</svg>