<svg xmlns="http://www.w3.org/2000/svg" viewBox="0 0 200 200">
  <defs>
    <linearGradient id="trackingGradient" x1="0%" y1="0%" x2="100%" y2="100%">
      <stop offset="0%" style="stop-color:#667eea;stop-opacity:1" />
      <stop offset="100%" style="stop-color:#764ba2;stop-opacity:1" />
    </linearGradient>
  </defs>
  
  <!-- Background circle -->
  <circle cx="100" cy="100" r="90" fill="url(#trackingGradient)" opacity="0.1"/>
  
  <!-- Chart/Graph -->
  <g transform="translate(50,120)">
    <!-- Chart background -->
    <rect x="0" y="0" width="100" height="60" fill="#f7fafc" stroke="#e2e8f0" stroke-width="2" rx="4"/>
    
    <!-- Chart bars -->
    <rect x="10" y="40" width="8" height="15" fill="url(#trackingGradient)" opacity="0.7"/>
    <rect x="25" y="30" width="8" height="25" fill="url(#trackingGradient)" opacity="0.8"/>
    <rect x="40" y="20" width="8" height="35" fill="url(#trackingGradient)" opacity="0.9"/>
    <rect x="55" y="35" width="8" height="20" fill="url(#trackingGradient)" opacity="0.7"/>
    <rect x="70" y="15" width="8" height="40" fill="url(#trackingGradient)"/>
    <rect x="85" y="25" width="8" height="30" fill="url(#trackingGradient)" opacity="0.8"/>
    
    <!-- Grid lines -->
    <line x1="5" y1="15" x2="95" y2="15" stroke="#e2e8f0" stroke-width="1"/>
    <line x1="5" y1="30" x2="95" y2="30" stroke="#e2e8f0" stroke-width="1"/>
    <line x1="5" y1="45" x2="95" y2="45" stroke="#e2e8f0" stroke-width="1"/>
  </g>
  
  <!-- Target/Goal -->
  <g transform="translate(140,70)">
    <circle cx="0" cy="0" r="20" fill="#fff" stroke="url(#trackingGradient)" stroke-width="3"/>
    <circle cx="0" cy="0" r="12" fill="url(#trackingGradient)" opacity="0.2"/>
    <circle cx="0" cy="0" r="6" fill="url(#trackingGradient)" opacity="0.5"/>
    <circle cx="0" cy="0" r="2" fill="url(#trackingGradient)"/>
  </g>
  
  <!-- Progress circle -->
  <g transform="translate(70,70)">
    <circle cx="0" cy="0" r="15" fill="none" stroke="#e2e8f0" stroke-width="4"/>
    <circle cx="0" cy="0" r="15" fill="none" stroke="url(#trackingGradient)" stroke-width="4" 
            stroke-dasharray="70" stroke-dashoffset="20" transform="rotate(-90)"/>
    <text x="0" y="5" text-anchor="middle" font-family="Arial" font-size="10" fill="url(#trackingGradient)">75%</text>
  </g>
  
  <!-- Calendar/Schedule -->
  <g transform="translate(120,140)">
    <rect x="0" y="0" width="30" height="25" fill="#f7fafc" stroke="#e2e8f0" stroke-width="2" rx="2"/>
    <rect x="0" y="0" width="30" height="6" fill="url(#trackingGradient)" rx="2"/>
    
    <!-- Calendar grid -->
    <line x1="7" y1="8" x2="7" y2="23" stroke="#e2e8f0" stroke-width="1"/>
    <line x1="15" y1="8" x2="15" y2="23" stroke="#e2e8f0" stroke-width="1"/>
    <line x1="23" y1="8" x2="23" y2="23" stroke="#e2e8f0" stroke-width="1"/>
    <line x1="2" y1="12" x2="28" y2="12" stroke="#e2e8f0" stroke-width="1"/>
    <line x1="2" y1="18" x2="28" y2="18" stroke="#e2e8f0" stroke-width="1"/>
    
    <!-- Highlighted day -->
    <circle cx="11" cy="15" r="2" fill="url(#trackingGradient)"/>
  </g>
  
  <!-- Trophy/Achievement -->
  <g transform="translate(50,50)">
    <path d="M0,15 Q-5,10 -5,5 Q-5,0 0,0 Q5,0 5,5 Q5,10 0,15 Z" fill="#ffd700"/>
    <rect x="-2" y="15" width="4" height="8" fill="#a0aec0"/>
    <rect x="-4" y="23" width="8" height="3" fill="#718096"/>
    <circle cx="0" cy="7" r="2" fill="#fff" opacity="0.3"/>
  </g>
</svg>